<?xml version="1.0" encoding="iso-8859-1"?>
<!-- Generator: Adobe Illustrator 19.0.0, SVG Export Plug-In . SVG Version: 6.00 Build 0)  -->
<svg version="1.1" id="Layer_1" xmlns="http://www.w3.org/2000/svg" xmlns:xlink="http://www.w3.org/1999/xlink" x="0px" y="0px"
	 viewBox="0 0 512 512" style="enable-background:new 0 0 512 512;" xml:space="preserve"  fill="#fff" >
<g>
	<g>
		<path d="M153.389,260.473c-0.001-0.553-0.605-1.106-0.706-1.652c-0.022-0.118-0.043-0.234-0.069-0.35
			c-0.108-0.478-0.24-0.953-0.424-1.415l-0.067-0.168c0,0,0.539-0.005,0.538-0.007l-17.364-44.758v-72.753
			c0-58.161-37.251-131.565-38.817-134.659c-3.167-6.279-13.199-6.279-16.366,0c-1.565,3.094-38.006,76.498-38.006,134.659v72.754
			l-18.638,44.76v0.005l-0.242,0.168c-0.185,0.462-0.404,0.937-0.512,1.415c-0.026,0.116-0.091,0.232-0.113,0.35
			c-0.101,0.548,0.354,1.099,0.353,1.652c0,0.014,0.514,0.027,0.514,0.041v214.334c0,5.151,2.33,9.319,9.319,9.319v18.638
			c0,5.151,3.092,9.196,8.238,9.196h93.189c5.146,0,10.4-4.045,10.4-9.196v-18.638c4.659,0,9.319-4.168,9.319-9.319V260.514
			C153.933,260.5,153.389,260.487,153.389,260.473z M60.745,139.369c0-37.212,17.25-83.142,27.961-108.077
			c10.711,24.917,27.952,70.82,27.952,108.077v9.196H60.745V139.369z M60.745,167.202h55.913v37.275H60.745V167.202z
			 M56.656,223.115h61.928l11.185,27.957H45.472L56.656,223.115z M125.977,493.362H51.426v-9.319h74.551V493.362z M135.296,465.406
			H42.107V269.71h93.189V465.406z"/>
	</g>
</g>
<g>
	<g>
		<path d="M321.128,260.473c-0.001-0.553-0.605-1.106-0.706-1.652c-0.022-0.118-0.043-0.234-0.069-0.35
			c-0.108-0.478-0.24-0.953-0.424-1.415l-0.067-0.168c0,0,0.539-0.005,0.538-0.007l-17.364-44.758v-72.753
			c0-58.161-37.251-131.565-38.817-134.659c-3.167-6.279-13.199-6.279-16.366,0c-1.565,3.094-38.006,76.498-38.006,134.659v72.754
			l-18.638,44.76v0.005l-0.242,0.168c-0.184,0.462-0.404,0.937-0.511,1.415c-0.026,0.116-0.092,0.232-0.114,0.35
			c-0.101,0.548,0.355,1.099,0.353,1.652c0,0.014,0.514,0.027,0.514,0.041v214.334c0,5.151,2.33,9.319,9.319,9.319v18.638
			c0,5.151,3.092,9.196,8.238,9.196h93.189c5.146,0,10.4-4.045,10.4-9.196v-18.638c4.659,0,9.319-4.168,9.319-9.319V260.514
			C321.673,260.5,321.128,260.487,321.128,260.473z M228.484,139.369c0-37.212,17.25-83.142,27.961-108.077
			c10.711,24.917,27.952,70.82,27.952,108.077v9.196h-55.913V139.369z M228.484,167.202h55.913v37.275h-55.913V167.202z
			 M224.396,223.115h61.928l11.185,27.957h-84.297L224.396,223.115z M293.716,493.362h-74.551v-9.319h74.551V493.362z
			 M303.035,465.406h-93.189V269.71h93.189V465.406z"/>
	</g>
</g>
<g>
	<g>
		<path d="M488.867,260.473c-0.001-0.553-0.605-1.106-0.706-1.652c-0.022-0.118-0.043-0.234-0.069-0.35
			c-0.108-0.478-0.24-0.953-0.424-1.415l-0.067-0.168c0,0,0.539-0.005,0.538-0.007l-17.364-44.758v-72.753
			c0-58.161-37.251-131.565-38.817-134.659c-3.167-6.279-13.199-6.279-16.366,0c-1.565,3.094-38.006,76.498-38.006,134.659v72.754
			l-18.638,44.76v0.005l-0.242,0.168c-0.184,0.462-0.404,0.937-0.511,1.415c-0.026,0.116-0.092,0.232-0.114,0.35
			c-0.101,0.548,0.355,1.099,0.353,1.652c0,0.014,0.514,0.027,0.514,0.041v214.334c0,5.151,2.33,9.319,9.319,9.319v18.638
			c0,5.151,3.092,9.196,8.238,9.196h93.189c5.146,0,10.4-4.045,10.4-9.196v-18.638c4.659,0,9.319-4.168,9.319-9.319V260.514
			C489.412,260.5,488.867,260.487,488.867,260.473z M396.224,139.369c0-37.212,17.25-83.142,27.961-108.077
			c10.711,24.917,27.952,70.82,27.952,108.077v9.196h-55.913V139.369z M396.224,167.202h55.913v37.275h-55.913V167.202z
			 M392.135,223.115h61.928l11.185,27.957h-84.297L392.135,223.115z M461.456,493.362h-74.551v-9.319h74.551V493.362z
			 M470.774,465.406h-93.189V269.71h93.189V465.406z"/>
	</g>
</g>
<g>
</g>
<g>
</g>
<g>
</g>
<g>
</g>
<g>
</g>
<g>
</g>
<g>
</g>
<g>
</g>
<g>
</g>
<g>
</g>
<g>
</g>
<g>
</g>
<g>
</g>
<g>
</g>
<g>
</g>
</svg>
