<?xml version="1.0" encoding="iso-8859-1"?>
<!-- Generator: Adobe Illustrator 19.0.0, SVG Export Plug-In . SVG Version: 6.00 Build 0)  -->
<svg version="1.1" id="Layer_1" xmlns="http://www.w3.org/2000/svg" xmlns:xlink="http://www.w3.org/1999/xlink" x="0px" y="0px"
	 viewBox="0 0 359.928 359.928" style="enable-background:new 0 0 359.928 359.928;" xml:space="preserve"  fill="#fff" >
<g id="XMLID_104_">
	<path id="XMLID_105_" d="M115.604,293.4c5.95,5.224,12.091,10.614,18.41,16.202c0.043,0.039,0.087,0.077,0.131,0.115l21.018,18.155
		c2.816,2.433,6.311,3.648,9.806,3.648s6.99-1.217,9.807-3.649l18.769-16.216c17.276,12.491,38.483,19.865,61.384,19.865
		c57.897,0,105-47.103,105-105c0-29.95-12.607-57.009-32.789-76.155c1.842-8.121,2.789-16.328,2.789-24.509
		c0-54.646-42.805-97.451-97.449-97.451c-24.561,0-48.827,9.249-67.512,25.279c-18.688-16.032-42.955-25.279-67.516-25.279
		C42.806,28.406,0,71.212,0,125.857C0,191.912,45.99,232.286,115.604,293.4z M254.928,151.521c41.355,0,75,33.646,75,75
		s-33.645,75-75,75c-41.355,0-75-33.646-75-75S213.572,151.521,254.928,151.521z"/>
	<path id="XMLID_108_" d="M231.321,260.128c2.929,2.93,6.768,4.394,10.606,4.394c3.839,0,7.678-1.464,10.606-4.394l45-45
		c5.858-5.858,5.858-15.355,0-21.213c-5.857-5.858-15.355-5.858-21.213,0l-34.393,34.393l-9.394-9.393
		c-5.857-5.858-15.355-5.858-21.213,0c-5.858,5.857-5.858,15.355,0,21.213L231.321,260.128z"/>
</g>
<g>
</g>
<g>
</g>
<g>
</g>
<g>
</g>
<g>
</g>
<g>
</g>
<g>
</g>
<g>
</g>
<g>
</g>
<g>
</g>
<g>
</g>
<g>
</g>
<g>
</g>
<g>
</g>
<g>
</g>
</svg>
