<?xml version="1.0" standalone="no"?>
<!DOCTYPE svg PUBLIC "-//W3C//DTD SVG 20010904//EN"
 "http://www.w3.org/TR/2001/REC-SVG-20010904/DTD/svg10.dtd">
<svg version="1.0" xmlns="http://www.w3.org/2000/svg"
 width="256.000000pt" height="256.000000pt" viewBox="0 0 256.000000 256.000000"
 preserveAspectRatio="xMidYMid meet">
<metadata>
Created by potrace 1.11, written by Peter Selinger 2001-2013
</metadata>
<g transform="translate(0.000000,256.000000) scale(0.100000,-0.100000)"
fill="#000000" stroke="none">
<path d="M1100 2509 c0 -4 -7 -6 -15 -3 -8 4 -15 1 -15 -5 0 -6 -6 -8 -14 -5
-7 3 -20 -1 -27 -8 -8 -7 -21 -14 -29 -16 -8 -2 -25 -14 -38 -28 -14 -13 -29
-24 -34 -24 -5 0 -7 -4 -4 -9 3 -5 -1 -12 -10 -15 -8 -3 -12 -10 -9 -16 3 -5
1 -10 -5 -10 -6 0 -8 -4 -5 -10 3 -5 1 -10 -4 -10 -6 0 -11 -6 -11 -14 0 -7
-7 -19 -15 -26 -8 -6 -14 -15 -13 -18 1 -4 -9 -29 -22 -57 -13 -27 -25 -53
-26 -57 -1 -5 -3 -10 -4 -13 -1 -3 -3 -10 -4 -15 0 -6 -6 -14 -12 -18 -10 -6
-30 -53 -25 -60 1 -1 -8 -12 -18 -24 -11 -11 -18 -25 -15 -30 3 -4 0 -8 -6 -8
-7 0 -10 -7 -6 -15 3 -8 1 -15 -4 -15 -6 0 -10 -4 -10 -10 0 -5 -9 -20 -19
-32 -11 -13 -29 -34 -40 -47 -24 -27 -21 -37 6 -26 10 5 21 9 25 9 3 1 10 5
15 9 4 5 2 7 -6 5 -7 -1 -16 3 -19 11 -3 8 0 11 7 7 6 -4 11 0 11 10 0 16 1
16 16 -2 14 -18 15 -18 4 4 -6 12 -8 23 -5 23 3 1 9 2 14 3 5 0 13 5 18 10 5
5 3 6 -4 2 -17 -9 -16 -6 4 34 15 31 17 32 30 15 7 -11 13 -14 13 -8 0 6 -7
16 -15 23 -8 7 -12 17 -9 22 3 5 15 2 27 -9 21 -17 21 -17 6 0 -17 20 -14 71
4 60 5 -3 7 -1 4 4 -4 6 0 16 9 23 8 7 13 19 10 27 -3 8 1 16 9 19 8 4 15 15
15 25 0 10 5 19 11 19 6 0 9 7 5 15 -3 8 -1 15 5 15 6 0 7 5 4 10 -9 15 14 41
29 33 6 -3 8 -2 3 2 -4 5 0 19 8 32 9 13 12 23 8 23 -3 0 3 10 15 23 12 13 19
27 15 32 -5 4 1 5 11 1 17 -6 17 -5 5 11 -12 15 -12 16 6 9 11 -4 17 -4 13 -1
-9 9 23 45 40 45 7 0 10 -5 7 -10 -4 -6 -10 -8 -15 -5 -4 3 -7 -3 -5 -12 1
-10 -5 -27 -14 -38 -16 -20 -16 -20 6 -1 13 10 20 22 18 26 -2 4 4 15 15 25
11 10 17 22 14 26 -8 14 10 11 25 -3 7 -7 12 -8 11 -3 -5 22 1 29 11 15 9 -12
10 -11 5 5 -6 20 -6 20 9 1 9 -12 15 -15 15 -7 0 8 6 11 16 7 8 -3 13 -2 10 3
-3 5 1 12 10 15 22 8 31 7 16 -2 -9 -7 -7 -13 9 -27 14 -14 19 -15 17 -5 -2 7
5 16 16 18 10 2 16 0 13 -5 -4 -5 0 -10 8 -10 8 0 11 5 8 10 -4 7 1 7 13 3 38
-16 54 -18 54 -8 0 17 -36 33 -56 25 -10 -3 -15 -2 -12 3 4 5 -23 10 -63 11
-38 1 -69 -3 -69 -8z m30 -3 c0 -2 -7 -7 -16 -10 -8 -3 -12 -2 -9 4 6 10 25
14 25 6z m64 -10 c-21 -15 -30 -14 -19 3 3 6 14 11 23 11 13 0 13 -2 -4 -14z
m91 -14 c-3 -3 -11 0 -18 7 -9 10 -8 11 6 5 10 -3 15 -9 12 -12z"/>
<path d="M1310 2477 c0 -9 5 -17 11 -17 5 0 7 -5 4 -10 -4 -6 -12 -7 -18 -3
-8 5 -8 2 0 -9 7 -8 11 -17 8 -20 -3 -2 2 -5 10 -5 11 0 12 4 4 13 -7 8 -6 14
2 19 6 4 15 1 20 -6 4 -7 12 -10 16 -5 4 5 2 11 -5 13 -7 3 -22 14 -33 26 -16
18 -19 18 -19 4z"/>
<path d="M1140 2466 c0 -2 8 -10 18 -17 15 -13 16 -12 3 4 -13 16 -21 21 -21
13z"/>
<path d="M1250 2461 c0 -6 4 -13 10 -16 6 -3 7 1 4 9 -7 18 -14 21 -14 7z"/>
<path d="M1091 2447 c-8 -10 -7 -14 2 -14 8 0 14 6 14 14 0 7 -1 13 -2 13 -2
0 -8 -6 -14 -13z"/>
<path d="M1223 2444 c9 -11 14 -23 11 -26 -3 -3 -1 -8 4 -12 18 -11 8 25 -12
41 -21 18 -21 18 -3 -3z"/>
<path d="M1031 2427 c-13 -21 -12 -21 5 -5 10 10 16 20 13 22 -3 3 -11 -5 -18
-17z"/>
<path d="M1186 2418 c3 -4 9 -8 15 -8 5 0 9 4 9 8 0 5 -7 9 -15 9 -8 0 -12 -4
-9 -9z"/>
<path d="M1370 2424 c0 -8 32 -39 41 -39 4 0 11 -3 15 -7 4 -5 3 -8 -3 -8 -5
0 -10 -6 -10 -13 0 -7 7 -13 16 -13 9 1 17 -3 17 -9 1 -5 -3 -8 -10 -7 -6 2
-8 0 -4 -4 4 -4 2 -14 -4 -23 -7 -9 0 -5 15 8 15 14 27 20 27 13 0 -6 10 -14
21 -17 12 -4 18 -10 13 -14 -18 -12 -12 -28 9 -26 13 1 27 -6 33 -18 9 -16 12
-17 17 -4 4 10 -3 21 -17 30 -13 9 -55 47 -93 86 -65 66 -83 80 -83 65z"/>
<path d="M1055 2400 c3 -5 8 -10 11 -10 2 0 4 5 4 10 0 6 -5 10 -11 10 -5 0
-7 -4 -4 -10z"/>
<path d="M1109 2363 c-13 -16 -12 -17 4 -4 9 7 17 15 17 17 0 8 -8 3 -21 -13z"/>
<path d="M1190 2356 c7 -7 13 -7 20 0 6 6 3 10 -10 10 -13 0 -16 -4 -10 -10z"/>
<path d="M946 2338 c3 -5 10 -6 15 -3 13 9 11 12 -6 12 -8 0 -12 -4 -9 -9z"/>
<path d="M987 2339 c7 -7 15 -10 18 -7 3 3 -2 9 -12 12 -14 6 -15 5 -6 -5z"/>
<path d="M1150 2336 c0 -2 8 -10 18 -17 15 -13 16 -12 3 4 -13 16 -21 21 -21
13z"/>
<path d="M919 2328 c-7 -23 -4 -35 7 -35 9 0 11 4 4 12 -5 7 -7 15 -3 18 3 4
3 7 0 7 -4 0 -7 -1 -8 -2z"/>
<path d="M1195 2320 c3 -5 8 -10 11 -10 2 0 4 5 4 10 0 6 -5 10 -11 10 -5 0
-7 -4 -4 -10z"/>
<path d="M1393 2311 c0 -11 5 -18 9 -15 4 3 5 11 1 19 -7 21 -12 19 -10 -4z"/>
<path d="M1096 2287 c3 -10 9 -15 12 -12 3 3 0 11 -7 18 -10 9 -11 8 -5 -6z"/>
<path d="M1319 2273 c-13 -16 -12 -17 4 -4 9 7 17 15 17 17 0 8 -8 3 -21 -13z"/>
<path d="M870 2261 c0 -5 8 -15 18 -22 15 -12 16 -12 5 2 -7 9 -10 19 -6 22 3
4 1 7 -5 7 -7 0 -12 -4 -12 -9z"/>
<path d="M907 2259 c7 -7 15 -10 18 -7 3 3 -2 9 -12 12 -14 6 -15 5 -6 -5z"/>
<path d="M1039 2233 c-13 -16 -12 -17 4 -4 9 7 17 15 17 17 0 8 -8 3 -21 -13z"/>
<path d="M1246 2243 c-4 -4 -26 -8 -49 -9 -23 -1 -62 -9 -86 -18 -24 -9 -48
-13 -55 -9 -6 3 -8 3 -4 -2 4 -4 -13 -30 -37 -58 -24 -28 -42 -54 -39 -59 3
-4 -1 -11 -10 -14 -8 -3 -12 -12 -9 -20 3 -7 -2 -17 -11 -20 -9 -3 -14 -10
-11 -14 8 -13 -17 -60 -28 -53 -6 3 -7 1 -3 -5 9 -14 -14 -63 -27 -55 -6 3 -7
1 -3 -5 10 -17 -21 -85 -35 -76 -7 4 -9 3 -6 -4 10 -15 -3 -43 -16 -35 -6 3
-7 1 -3 -5 13 -21 -79 -102 -106 -94 -5 1 -8 -2 -8 -7 0 -8 -53 -34 -65 -32
-3 1 -13 -5 -21 -14 -9 -8 -22 -15 -30 -15 -8 0 -14 -5 -14 -11 0 -6 -9 -9
-20 -6 -13 3 -20 0 -20 -9 0 -13 -12 -18 -32 -15 -5 0 -8 -4 -8 -11 0 -6 -3
-9 -6 -5 -4 3 -13 -1 -21 -9 -9 -8 -22 -13 -29 -10 -8 3 -13 1 -11 -3 1 -5
-15 -22 -36 -39 -21 -17 -38 -33 -38 -36 0 -3 -7 -23 -16 -43 -22 -53 -24
-137 -4 -191 10 -29 41 -69 86 -115 39 -39 69 -74 68 -79 -2 -4 1 -7 5 -5 14
4 82 -56 82 -71 0 -9 3 -12 6 -9 10 10 85 -75 80 -90 -3 -7 0 -12 6 -10 7 1
13 -2 13 -8 1 -5 5 -18 10 -28 4 -10 8 -38 9 -62 0 -23 5 -41 10 -38 5 3 7 -6
4 -21 -3 -14 -2 -26 3 -26 4 0 6 -8 4 -17 -1 -10 1 -25 6 -34 5 -10 3 -21 -4
-29 -9 -10 -9 -11 1 -6 12 7 16 -8 15 -66 -1 -17 3 -25 9 -22 6 4 8 1 6 -7 -3
-8 3 -35 12 -62 10 -26 16 -47 14 -47 -3 0 9 -14 25 -32 19 -20 26 -35 19 -39
-7 -4 -7 -9 0 -13 6 -3 13 0 15 6 4 9 8 10 14 2 9 -12 44 -28 56 -26 4 1 7 -6
8 -15 0 -10 3 -13 5 -6 3 7 14 9 32 4 15 -5 35 -7 45 -5 9 1 17 -3 17 -9 0 -9
2 -9 8 0 4 6 21 13 37 15 17 2 32 5 35 9 6 7 78 40 85 39 3 0 15 8 26 19 12
11 28 17 37 14 9 -4 13 -2 9 4 -8 13 20 26 35 16 6 -3 8 -1 4 5 -3 6 4 14 16
18 13 4 25 9 28 13 3 3 28 18 56 33 57 31 134 43 146 25 6 -9 8 -8 8 1 0 7 4
10 10 7 5 -3 26 -8 47 -10 72 -7 146 -19 163 -25 3 -1 18 -1 34 0 15 1 26 -2
23 -7 -6 -10 116 -9 161 2 18 4 35 12 38 16 3 5 10 6 16 3 6 -4 8 -3 5 3 -7
12 50 56 62 49 5 -3 8 0 8 7 -1 6 9 34 22 60 22 47 24 73 18 209 -1 25 -5 44
-8 42 -9 -5 -20 86 -12 99 3 5 2 7 -4 4 -5 -3 -14 25 -20 66 -14 95 -15 134
-4 142 6 3 8 12 4 20 -3 10 1 15 13 16 11 0 13 3 7 6 -9 3 -1 26 25 76 20 40
40 73 44 75 4 2 4 10 1 18 -3 8 0 14 6 14 6 0 10 6 8 13 -1 6 3 11 8 10 6 -1
11 7 12 17 2 26 34 91 42 86 3 -2 7 14 8 37 2 22 11 50 20 61 12 14 13 17 3 9
-14 -10 -16 -7 -15 25 0 20 -6 43 -13 51 -8 8 -11 23 -8 33 2 11 2 17 -1 14
-7 -7 -49 46 -45 57 1 5 -2 6 -7 3 -5 -4 -13 -1 -18 6 -11 17 -69 45 -113 54
-60 13 -74 15 -112 16 -21 1 -38 5 -38 9 0 3 -13 5 -30 3 -16 -2 -30 0 -30 4
0 4 -21 8 -47 9 -63 2 -91 8 -138 27 -47 20 -87 55 -78 69 3 6 1 7 -4 4 -12
-8 -56 27 -46 37 3 3 1 6 -6 6 -17 0 -82 65 -74 74 3 3 1 6 -5 6 -16 0 -78 60
-74 72 1 5 -1 7 -6 4 -5 -3 -20 6 -34 19 -14 13 -44 30 -67 37 -23 8 -38 17
-34 21 3 4 4 7 1 7 -2 0 -8 -3 -12 -7z"/>
<path d="M1346 2242 c-3 -5 1 -9 9 -9 8 0 12 4 9 9 -3 4 -7 8 -9 8 -2 0 -6 -4
-9 -8z"/>
<path d="M1476 2238 c3 -5 10 -6 15 -3 13 9 11 12 -6 12 -8 0 -12 -4 -9 -9z"/>
<path d="M1570 2228 c0 -10 5 -18 11 -18 8 0 7 -6 -2 -17 -11 -15 -11 -16 1
-6 15 14 41 0 36 -20 -1 -7 -1 -9 1 -4 3 4 9 7 14 7 6 0 7 -5 4 -10 -4 -6 -1
-9 7 -8 7 2 12 -3 11 -9 -2 -7 7 -13 19 -13 21 0 21 0 2 -22 -12 -14 -13 -18
-3 -10 23 17 32 2 12 -20 -9 -10 -13 -18 -8 -18 4 0 2 -6 -4 -13 -8 -10 -7
-14 3 -14 8 0 13 7 11 16 -4 25 25 53 41 40 8 -6 11 -16 8 -21 -4 -6 3 -5 15
1 17 10 22 9 27 -3 3 -8 14 -16 25 -19 16 -4 17 -2 8 14 -5 11 -14 17 -19 14
-5 -3 -11 -1 -15 5 -4 6 -11 8 -16 5 -5 -4 -9 -1 -9 5 0 6 -4 9 -8 6 -4 -2
-32 19 -62 47 -30 28 -59 52 -65 52 -5 1 -8 7 -7 15 2 8 0 12 -4 8 -4 -4 -13
0 -20 10 -13 16 -13 16 -14 0z"/>
<path d="M1350 2206 c0 -2 7 -7 16 -10 8 -3 12 -2 9 4 -6 10 -25 14 -25 6z"/>
<path d="M1516 2158 c3 -5 10 -6 15 -3 13 9 11 12 -6 12 -8 0 -12 -4 -9 -9z"/>
<path d="M1550 2161 c0 -6 4 -13 10 -16 6 -3 7 1 4 9 -7 18 -14 21 -14 7z"/>
<path d="M835 2150 c-3 -5 -3 -10 1 -10 4 0 -1 -10 -12 -22 -19 -23 -19 -23 2
-5 11 9 21 24 21 32 0 18 -3 19 -12 5z"/>
<path d="M936 2127 c3 -10 9 -15 12 -12 3 3 0 11 -7 18 -10 9 -11 8 -5 -6z"/>
<path d="M1639 2118 c-5 -18 -6 -38 -1 -34 7 8 12 36 6 36 -2 0 -4 -1 -5 -2z"/>
<path d="M830 2081 c0 -6 4 -13 10 -16 6 -3 7 1 4 9 -7 18 -14 21 -14 7z"/>
<path d="M1834 2052 c20 -23 32 -30 21 -12 -3 6 1 10 10 10 9 0 14 -4 10 -9
-3 -5 0 -13 6 -17 8 -4 9 -3 5 4 -10 17 0 15 30 -4 23 -16 24 -15 17 1 -4 13
-3 16 5 11 7 -4 12 -2 12 3 0 15 -13 14 -29 -1 -11 -11 -13 -10 -9 2 4 12 -3
15 -31 15 -20 0 -43 4 -51 10 -9 5 -7 0 4 -13z"/>
<path d="M1965 2040 c-5 -9 14 -15 38 -11 4 0 7 -3 7 -8 0 -13 38 -9 44 4 2 6
-9 10 -28 10 -17 -1 -36 2 -43 7 -7 5 -14 5 -18 -2z"/>
<path d="M1746 2018 c3 -5 10 -6 15 -3 13 9 11 12 -6 12 -8 0 -12 -4 -9 -9z"/>
<path d="M1790 2016 c7 -7 13 -7 20 0 6 6 3 10 -10 10 -13 0 -16 -4 -10 -10z"/>
<path d="M2064 2018 c-3 -5 -3 -12 0 -15 3 -4 6 -2 6 4 0 5 14 8 30 5 17 -2
30 -8 30 -12 0 -4 11 -7 25 -6 14 0 25 4 25 8 0 4 9 0 20 -9 18 -15 18 -19 4
-34 -12 -14 -13 -18 -2 -25 7 -4 10 -3 5 1 -4 5 0 16 8 25 13 15 13 19 -5 38
-11 12 -27 19 -35 16 -8 -3 -20 -2 -27 2 -19 12 -77 13 -84 2z"/>
<path d="M1676 2007 c3 -10 9 -15 12 -12 3 3 0 11 -7 18 -10 9 -11 8 -5 -6z"/>
<path d="M2226 2006 c3 -9 9 -15 12 -14 19 2 33 -3 28 -11 -3 -4 6 -7 19 -5
16 1 30 -5 39 -17 12 -18 14 -18 20 -3 7 17 -7 32 -31 35 -23 3 -28 4 -40 12
-7 5 -13 6 -13 2 0 -3 -9 -1 -20 5 -16 8 -18 8 -14 -4z"/>
<path d="M1710 2000 c0 -5 5 -10 11 -10 5 0 7 5 4 10 -3 6 -8 10 -11 10 -2 0
-4 -4 -4 -10z"/>
<path d="M1759 1998 c-5 -18 -6 -38 -1 -34 7 8 12 36 6 36 -2 0 -4 -1 -5 -2z"/>
<path d="M773 1955 c0 -8 4 -12 9 -9 4 3 8 9 8 15 0 5 -4 9 -8 9 -5 0 -9 -7
-9 -15z"/>
<path d="M1930 1959 c0 -5 5 -7 10 -4 6 3 10 8 10 11 0 2 -4 4 -10 4 -5 0 -10
-5 -10 -11z"/>
<path d="M2357 1964 c-4 -4 -7 -12 -7 -17 0 -6 3 -8 6 -4 11 11 36 -23 30 -40
-6 -14 -4 -14 14 2 18 16 20 17 14 2 -3 -10 -1 -17 5 -17 6 0 11 -5 11 -11 0
-7 12 -23 28 -37 15 -13 21 -21 15 -18 -7 4 -13 2 -13 -3 0 -6 8 -11 18 -12
13 0 12 -2 -5 -9 -29 -12 -30 -20 -1 -12 14 3 19 1 14 -6 -3 -6 0 -17 8 -25
17 -17 9 -32 -9 -17 -8 7 -12 5 -12 -5 0 -8 4 -12 9 -9 9 6 9 5 13 -54 2 -36
-1 -42 -14 -37 -12 5 -13 3 -4 -6 8 -8 9 -19 3 -35 -5 -13 -7 -24 -4 -24 2 0
0 -9 -6 -20 -6 -11 -15 -18 -19 -15 -5 2 -8 -3 -7 -13 0 -10 -5 -16 -14 -14
-12 3 -12 1 -3 -9 14 -14 6 -42 -10 -32 -5 3 -7 1 -3 -5 3 -6 2 -13 -4 -17 -6
-4 -8 -11 -5 -16 4 -5 0 -9 -7 -9 -11 0 -10 -2 0 -9 11 -7 11 -9 -1 -14 -20
-8 -39 -64 -25 -73 6 -4 8 -3 4 4 -3 6 -2 13 4 17 6 4 8 11 5 16 -4 5 -1 9 5
9 6 0 9 4 6 9 -3 5 1 12 10 15 9 4 14 9 10 13 -3 3 1 15 11 25 9 10 13 18 9
18 -4 0 1 12 12 28 10 15 17 33 15 40 -3 6 0 12 5 12 11 0 28 38 24 53 -1 4 3
7 8 7 6 0 10 5 10 11 0 5 -4 7 -10 4 -6 -3 -7 1 -4 9 3 9 9 14 13 11 4 -2 7 6
6 18 -1 12 0 27 4 32 9 17 10 39 2 50 -5 5 -7 20 -6 32 1 15 -3 19 -14 15 -14
-5 -14 -4 -1 13 11 14 12 19 3 22 -7 3 -13 11 -13 19 0 8 -5 14 -11 14 -5 0
-8 4 -5 9 7 11 -83 113 -94 106 -5 -3 -10 0 -12 6 -2 5 -7 7 -11 3z m44 -31
c13 -16 12 -17 -3 -4 -17 13 -22 21 -14 21 2 0 10 -8 17 -17z m49 -53 c12 -16
19 -30 16 -30 -2 0 -14 14 -26 30 -12 17 -19 30 -16 30 2 0 14 -13 26 -30z
m65 -178 c2 -12 1 -24 -3 -26 -4 -2 -8 9 -8 25 -2 33 4 33 11 1z"/>
<path d="M1756 1942 c-3 -5 1 -9 9 -9 8 0 12 4 9 9 -3 4 -7 8 -9 8 -2 0 -6 -4
-9 -8z"/>
<path d="M2230 1938 c0 -4 4 -8 9 -8 6 0 12 4 15 8 3 5 -1 9 -9 9 -8 0 -15 -4
-15 -9z"/>
<path d="M735 1930 c-4 -6 -11 -7 -17 -4 -7 4 -8 2 -4 -5 6 -9 11 -9 22 0 14
11 18 19 10 19 -3 0 -8 -5 -11 -10z"/>
<path d="M1830 1936 c0 -2 8 -10 18 -17 15 -13 16 -12 3 4 -13 16 -21 21 -21
13z"/>
<path d="M2294 1929 c-3 -6 -2 -15 3 -20 5 -5 9 -1 9 11 0 23 -2 24 -12 9z"/>
<path d="M2125 1919 c-3 -4 2 -6 10 -5 21 3 28 13 10 13 -9 0 -18 -4 -20 -8z"/>
<path d="M2350 1921 c0 -6 4 -13 10 -16 6 -3 7 1 4 9 -7 18 -14 21 -14 7z"/>
<path d="M750 1899 c0 -5 5 -7 10 -4 6 3 10 8 10 11 0 2 -4 4 -10 4 -5 0 -10
-5 -10 -11z"/>
<path d="M785 1900 c-3 -6 1 -7 9 -4 18 7 21 14 7 14 -6 0 -13 -4 -16 -10z"/>
<path d="M2069 1883 c-13 -16 -12 -17 4 -4 9 7 17 15 17 17 0 8 -8 3 -21 -13z"/>
<path d="M2116 1887 c3 -10 9 -15 12 -12 3 3 0 11 -7 18 -10 9 -11 8 -5 -6z"/>
<path d="M2175 1889 c-4 -6 -5 -12 -2 -15 2 -3 7 2 10 11 7 17 1 20 -8 4z"/>
<path d="M2216 1887 c3 -10 9 -15 12 -12 3 3 0 11 -7 18 -10 9 -11 8 -5 -6z"/>
<path d="M2333 1887 c0 -7 9 -14 20 -14 11 -1 18 -1 16 0 -2 2 -11 8 -20 15
-12 9 -16 9 -16 -1z"/>
<path d="M586 1850 c-10 -11 -21 -19 -25 -18 -15 3 -60 -26 -54 -35 4 -6 0 -8
-10 -4 -9 3 -19 2 -22 -4 -4 -5 -10 -7 -15 -4 -20 12 -36 -42 -17 -61 3 -4 4
6 1 21 -3 20 -1 25 8 19 17 -11 57 -13 63 -4 3 4 -3 7 -13 6 -9 0 -17 3 -17 9
0 13 26 13 45 1 12 -8 13 -8 3 4 -15 17 -17 34 -3 25 6 -3 13 1 16 10 5 13 9
13 22 3 10 -9 13 -9 9 -1 -4 7 1 14 13 18 11 3 20 13 20 21 0 17 -1 17 -24 -6z"/>
<path d="M2369 1843 c-13 -16 -12 -17 4 -4 9 7 17 15 17 17 0 8 -8 3 -21 -13z"/>
<path d="M2404 1842 c4 -3 14 -7 22 -8 9 -1 13 0 10 4 -4 3 -14 7 -22 8 -9 1
-13 0 -10 -4z"/>
<path d="M595 1821 c-3 -5 -2 -12 3 -15 5 -3 9 1 9 9 0 17 -3 19 -12 6z"/>
<path d="M709 1763 c-13 -16 -12 -17 4 -4 16 13 21 21 13 21 -2 0 -10 -8 -17
-17z"/>
<path d="M395 1750 c-10 -11 -21 -17 -25 -15 -4 3 -24 -6 -44 -20 -20 -13 -36
-22 -36 -19 0 3 -13 -4 -30 -16 -16 -12 -30 -18 -30 -14 0 4 -8 0 -18 -9 -10
-10 -21 -14 -24 -11 -4 3 -9 -4 -13 -15 -3 -12 -10 -19 -14 -16 -5 2 -24 -13
-44 -34 -27 -30 -33 -41 -24 -50 9 -10 9 -12 -3 -9 -8 2 -14 -1 -15 -7 0 -5
-5 -17 -10 -25 -14 -21 -16 -36 -19 -118 -1 -49 2 -76 10 -83 7 -6 10 -17 7
-25 -3 -9 1 -14 13 -14 16 0 17 -2 4 -10 -11 -7 -11 -10 -2 -10 7 0 11 -4 8
-8 -3 -5 10 -25 28 -45 18 -20 30 -40 27 -43 -3 -4 -1 -4 6 0 7 4 17 -2 23
-14 6 -11 14 -19 18 -17 9 5 42 -30 34 -37 -3 -3 2 -6 11 -6 10 0 16 -3 15 -8
-2 -4 25 -33 59 -64 33 -31 59 -59 57 -62 -2 -3 -1 -4 2 -2 3 3 19 -11 36 -29
16 -19 38 -37 49 -40 11 -4 17 -10 15 -14 -3 -4 5 -23 16 -42 12 -19 23 -40
25 -46 2 -7 5 -21 7 -30 3 -10 5 -18 6 -18 1 0 3 -16 5 -35 5 -44 9 -62 17
-75 3 -5 4 -22 2 -37 -2 -23 1 -28 19 -27 16 0 18 2 7 7 -9 4 -16 23 -18 47
-3 60 -5 65 -14 65 -4 0 -8 5 -8 11 0 5 4 8 8 5 4 -2 8 4 8 15 0 10 -4 19 -9
19 -5 0 -4 7 3 15 12 14 7 20 -14 16 -5 -1 -6 5 -3 13 3 8 3 17 -1 21 -4 4 -7
12 -7 18 -1 7 -6 11 -12 10 -7 -2 -12 5 -12 15 -1 38 -5 51 -13 46 -4 -3 -8 0
-8 6 0 6 -4 8 -10 5 -9 -6 -14 8 -11 28 1 5 -3 6 -8 3 -5 -3 -14 1 -21 9 -7 8
-16 12 -21 9 -9 -5 -13 11 -9 31 1 6 -2 7 -6 3 -4 -4 -13 0 -20 10 -7 9 -17
17 -23 17 -6 0 -11 5 -10 10 1 6 5 9 11 7 5 -1 7 2 3 8 -3 6 -10 8 -15 5 -4
-3 -13 2 -20 10 -7 8 -17 15 -23 15 -11 0 -36 30 -37 43 0 5 5 5 12 1 7 -4 8
-3 4 4 -4 6 -12 9 -19 6 -15 -6 -84 56 -79 71 2 5 0 7 -4 3 -10 -11 -37 30
-28 44 4 6 3 8 -3 5 -6 -4 -18 2 -28 13 -20 22 -8 28 15 8 12 -11 12 -10 1 4
-7 10 -22 20 -33 24 -16 5 -17 8 -7 14 10 7 10 11 0 24 -8 9 -11 16 -7 16 3 0
1 11 -4 25 -7 18 -5 28 6 40 9 8 12 15 7 15 -5 0 -14 -5 -21 -12 -8 -8 -12 -8
-12 -1 0 6 10 18 22 27 20 14 21 15 3 10 -17 -5 -16 -3 5 15 14 12 19 20 11
19 -7 -2 -16 3 -19 11 -3 10 0 12 14 8 18 -7 18 -6 0 8 -19 14 -19 15 -2 15
15 0 16 3 6 15 -11 13 -10 15 1 10 8 -3 19 5 26 20 6 14 7 23 2 19 -5 -3 -9 0
-9 5 0 14 23 14 37 0 8 -8 13 -8 18 0 3 6 2 10 -3 9 -6 -2 -9 2 -9 7 1 6 6 9
10 7 5 -1 5 3 1 9 -5 8 -2 10 8 6 10 -3 15 0 14 11 0 10 6 16 16 16 11 -1 15
4 10 15 -5 14 -4 14 13 1 10 -8 16 -10 12 -4 -8 13 16 37 26 27 4 -3 7 -1 7 4
0 6 11 10 24 9 16 -2 23 1 19 10 -3 8 2 11 14 10 10 -2 31 7 46 20 16 13 32
22 36 20 4 -3 8 4 8 15 2 24 0 24 -22 -1z m-35 -35 c-7 -9 -15 -13 -19 -10 -3
3 1 10 9 15 21 14 24 12 10 -5z m-200 -109 c0 -2 -8 -10 -17 -17 -16 -13 -17
-12 -4 4 13 16 21 21 21 13z m-99 -179 c-10 -9 -11 -8 -5 6 3 10 9 15 12 12 3
-3 0 -11 -7 -18z m5 -115 c-3 -3 0 -12 6 -21 10 -13 10 -14 -2 -4 -16 15 -23
46 -8 37 5 -3 7 -9 4 -12z m45 -109 c13 -16 12 -17 -3 -4 -10 7 -18 15 -18 17
0 8 8 3 21 -13z m200 -200 c13 -16 12 -17 -3 -4 -17 13 -22 21 -14 21 2 0 10
-8 17 -17z m114 -113 c10 -11 16 -20 13 -20 -3 0 -13 9 -23 20 -10 11 -16 20
-13 20 3 0 13 -9 23 -20z"/>
<path d="M2399 1753 c-13 -16 -12 -17 4 -4 9 7 17 15 17 17 0 8 -8 3 -21 -13z"/>
<path d="M490 1719 c0 -5 5 -7 10 -4 6 3 10 8 10 11 0 2 -4 4 -10 4 -5 0 -10
-5 -10 -11z"/>
<path d="M650 1721 c0 -6 4 -13 10 -16 6 -3 7 1 4 9 -7 18 -14 21 -14 7z"/>
<path d="M696 1713 c-6 -14 -5 -15 5 -6 7 7 10 15 7 18 -3 3 -9 -2 -12 -12z"/>
<path d="M2286 1718 c3 -5 10 -6 15 -3 13 9 11 12 -6 12 -8 0 -12 -4 -9 -9z"/>
<path d="M2355 1721 c-3 -5 -2 -12 3 -15 5 -3 9 1 9 9 0 17 -3 19 -12 6z"/>
<path d="M2395 1721 c-3 -5 -2 -12 3 -15 5 -3 9 1 9 9 0 17 -3 19 -12 6z"/>
<path d="M373 1692 c-8 -14 -8 -19 1 -19 7 0 13 9 13 19 1 10 1 18 0 18 -1 0
-7 -8 -14 -18z"/>
<path d="M495 1689 c-4 -6 -5 -12 -2 -15 2 -3 7 2 10 11 7 17 1 20 -8 4z"/>
<path d="M546 1682 c-3 -5 1 -9 9 -9 8 0 12 4 9 9 -3 4 -7 8 -9 8 -2 0 -6 -4
-9 -8z"/>
<path d="M650 1680 c0 -5 5 -10 11 -10 5 0 7 5 4 10 -3 6 -8 10 -11 10 -2 0
-4 -4 -4 -10z"/>
<path d="M2335 1659 c-3 -4 2 -6 10 -5 21 3 28 13 10 13 -9 0 -18 -4 -20 -8z"/>
<path d="M340 1645 c0 -2 6 -8 13 -14 10 -8 14 -7 14 2 0 8 -6 14 -14 14 -7 0
-13 -1 -13 -2z"/>
<path d="M486 1642 c-3 -5 1 -9 9 -9 8 0 12 4 9 9 -3 4 -7 8 -9 8 -2 0 -6 -4
-9 -8z"/>
<path d="M239 1613 c-13 -16 -12 -17 4 -4 9 7 17 15 17 17 0 8 -8 3 -21 -13z"/>
<path d="M2430 1606 c0 -2 7 -7 16 -10 8 -3 12 -2 9 4 -6 10 -25 14 -25 6z"/>
<path d="M2336 1582 c-3 -5 1 -9 9 -9 8 0 12 4 9 9 -3 4 -7 8 -9 8 -2 0 -6 -4
-9 -8z"/>
<path d="M2376 1578 c3 -4 11 -5 19 -1 21 7 19 12 -4 10 -11 0 -18 -5 -15 -9z"/>
<path d="M220 1546 c0 -2 8 -10 18 -17 15 -13 16 -12 3 4 -13 16 -21 21 -21
13z"/>
<path d="M195 1529 c-4 -6 -5 -12 -2 -15 2 -3 7 2 10 11 7 17 1 20 -8 4z"/>
<path d="M2376 1513 c-6 -14 -5 -15 5 -6 7 7 10 15 7 18 -3 3 -9 -2 -12 -12z"/>
<path d="M307 1499 c7 -7 15 -10 18 -7 3 3 -2 9 -12 12 -14 6 -15 5 -6 -5z"/>
<path d="M124 1482 c23 -26 23 -26 23 -7 0 8 -3 13 -5 10 -3 -3 -12 1 -21 7
-10 8 -9 4 3 -10z"/>
<path d="M190 1460 c0 -5 5 -10 11 -10 5 0 7 5 4 10 -3 6 -8 10 -11 10 -2 0
-4 -4 -4 -10z"/>
<path d="M136 1433 c-6 -14 -5 -15 5 -6 7 7 10 15 7 18 -3 3 -9 -2 -12 -12z"/>
<path d="M2259 1428 c-5 -18 -6 -38 -1 -34 7 8 12 36 6 36 -2 0 -4 -1 -5 -2z"/>
<path d="M150 1401 c0 -6 4 -13 10 -16 6 -3 7 1 4 9 -7 18 -14 21 -14 7z"/>
<path d="M2296 1393 c-6 -14 -5 -15 5 -6 7 7 10 15 7 18 -3 3 -9 -2 -12 -12z"/>
<path d="M114 1346 c1 -8 5 -18 8 -22 4 -3 5 1 4 10 -1 8 -5 18 -8 22 -4 3 -5
-1 -4 -10z"/>
<path d="M140 1346 c0 -2 8 -10 18 -17 15 -13 16 -12 3 4 -13 16 -21 21 -21
13z"/>
<path d="M214 1338 c-4 -7 -4 -10 1 -6 4 4 15 2 24 -5 14 -11 14 -10 2 6 -16
20 -18 21 -27 5z"/>
<path d="M276 1327 c3 -10 9 -15 12 -12 3 3 0 11 -7 18 -10 9 -11 8 -5 -6z"/>
<path d="M2339 1316 c-3 -33 -4 -37 -19 -46 -13 -9 -13 -10 0 -10 13 0 13 -1
0 -10 -8 -5 -15 -17 -15 -27 -1 -10 -6 -17 -12 -16 -6 1 -9 -6 -6 -17 6 -23
-6 -26 -27 -7 -12 10 -12 9 -3 -3 11 -15 14 -90 3 -90 -3 0 -6 -9 -7 -20 -1
-11 4 -20 10 -20 7 0 6 -4 -3 -10 -8 -5 -10 -10 -4 -10 7 0 10 -13 9 -30 -1
-17 0 -28 4 -25 3 4 7 36 8 73 3 87 6 107 22 126 8 9 10 16 6 16 -4 0 -2 7 5
15 7 8 10 15 6 15 -3 0 1 8 9 18 8 9 15 22 16 27 0 6 7 17 15 26 13 14 13 18
-1 29 -12 10 -15 10 -16 -4z"/>
<path d="M254 1256 c1 -8 5 -18 8 -22 4 -3 5 1 4 10 -1 8 -5 18 -8 22 -4 3 -5
-1 -4 -10z"/>
<path d="M2266 1262 c-3 -5 1 -9 9 -9 8 0 15 4 15 9 0 4 -4 8 -9 8 -6 0 -12
-4 -15 -8z"/>
<path d="M2194 1206 c1 -8 5 -18 8 -22 4 -3 5 1 4 10 -1 8 -5 18 -8 22 -4 3
-5 -1 -4 -10z"/>
<path d="M199 1193 c-13 -16 -12 -17 4 -4 16 13 21 21 13 21 -2 0 -10 -8 -17
-17z"/>
<path d="M300 1166 c0 -2 8 -10 18 -17 15 -13 16 -12 3 4 -13 16 -21 21 -21
13z"/>
<path d="M2186 1122 c-3 -5 1 -9 9 -9 8 0 12 4 9 9 -3 4 -7 8 -9 8 -2 0 -6 -4
-9 -8z"/>
<path d="M2220 1125 c0 -2 6 -8 13 -14 10 -8 14 -7 14 2 0 8 -6 14 -14 14 -7
0 -13 -1 -13 -2z"/>
<path d="M396 1082 c-3 -5 1 -9 9 -9 8 0 12 4 9 9 -3 4 -7 8 -9 8 -2 0 -6 -4
-9 -8z"/>
<path d="M2114 1062 c4 -3 14 -7 22 -8 9 -1 13 0 10 4 -4 3 -14 7 -22 8 -9 1
-13 0 -10 -4z"/>
<path d="M359 1058 c-5 -18 -6 -38 -1 -34 7 8 12 36 6 36 -2 0 -4 -1 -5 -2z"/>
<path d="M470 1001 c0 -6 4 -13 10 -16 6 -3 7 1 4 9 -7 18 -14 21 -14 7z"/>
<path d="M2233 995 c0 -8 4 -12 9 -9 4 3 8 9 8 15 0 5 -4 9 -8 9 -5 0 -9 -7
-9 -15z"/>
<path d="M2175 980 c3 -5 8 -10 11 -10 2 0 4 5 4 10 0 6 -5 10 -11 10 -5 0 -7
-4 -4 -10z"/>
<path d="M2179 948 c-5 -18 -6 -38 -1 -34 7 8 12 36 6 36 -2 0 -4 -1 -5 -2z"/>
<path d="M2265 929 c-11 -16 -1 -19 13 -3 7 8 8 14 3 14 -5 0 -13 -5 -16 -11z"/>
<path d="M485 919 c-3 -4 2 -6 10 -5 21 3 28 13 10 13 -9 0 -18 -4 -20 -8z"/>
<path d="M2284 912 c3 -5 0 -13 -6 -15 -10 -4 -10 -6 0 -6 6 -1 12 -6 12 -12
0 -5 -6 -7 -12 -3 -10 6 -10 4 0 -7 6 -7 12 -23 12 -36 0 -15 6 -23 16 -23 13
0 14 3 4 15 -6 8 -9 19 -5 25 3 5 2 10 -3 10 -5 0 -8 11 -7 25 2 14 -2 28 -7
32 -6 3 -8 1 -4 -5z"/>
<path d="M615 880 c3 -5 8 -10 11 -10 2 0 4 5 4 10 0 6 -5 10 -11 10 -5 0 -7
-4 -4 -10z"/>
<path d="M553 825 c0 -8 4 -12 9 -9 5 3 6 10 3 15 -9 13 -12 11 -12 -6z"/>
<path d="M2215 820 c-3 -5 -1 -10 4 -10 6 0 11 5 11 10 0 6 -2 10 -4 10 -3 0
-8 -4 -11 -10z"/>
<path d="M630 800 c0 -5 5 -10 11 -10 5 0 7 5 4 10 -3 6 -8 10 -11 10 -2 0 -4
-4 -4 -10z"/>
<path d="M2216 778 c3 -5 10 -6 15 -3 13 9 11 12 -6 12 -8 0 -12 -4 -9 -9z"/>
<path d="M2307 773 c-3 -8 -2 -31 3 -35 1 -2 4 -19 5 -38 1 -19 5 -42 8 -50 3
-8 8 -39 10 -68 4 -46 3 -53 -12 -48 -10 4 -8 -1 6 -13 25 -21 19 -38 -6 -18
-14 10 -14 10 -4 -3 14 -19 13 -30 -7 -53 -8 -10 -15 -23 -15 -30 -1 -7 -7
-11 -14 -9 -7 1 -10 -2 -7 -7 4 -5 2 -12 -4 -16 -6 -4 -8 -11 -5 -16 4 -5 -5
-13 -19 -19 -18 -7 -24 -14 -19 -26 4 -11 3 -15 -5 -10 -6 3 -13 2 -17 -4 -4
-6 -11 -7 -17 -4 -7 5 -8 2 -3 -6 6 -10 4 -12 -9 -7 -10 4 -15 3 -11 -3 3 -6
-1 -10 -9 -10 -9 0 -16 -4 -16 -10 0 -5 -7 -7 -15 -4 -8 4 -12 11 -8 18 3 6 2
7 -3 3 -5 -5 -10 -13 -10 -18 -1 -5 -2 -12 -3 -15 0 -4 -8 -1 -16 6 -10 9 -15
9 -15 1 0 -13 -22 -10 -32 4 -4 6 -8 0 -8 -12 0 -13 5 -23 10 -23 6 0 10 5 10
11 0 8 4 8 15 -1 8 -6 20 -8 27 -4 7 5 24 9 38 9 15 0 24 6 22 14 -2 8 3 11
13 8 8 -4 15 -2 15 4 0 6 4 8 9 5 5 -3 14 1 21 9 7 8 17 12 24 8 6 -3 8 -3 4
1 -3 4 14 26 38 48 32 30 41 44 34 53 -8 9 -5 14 11 18 11 3 18 10 15 16 -4 5
-2 12 4 16 6 4 8 10 5 15 -3 5 -2 11 3 14 7 4 8 111 2 111 -3 0 -6 21 -14 85
-2 19 -5 36 -6 38 -2 1 -4 11 -5 22 -1 11 -4 23 -5 28 -1 4 -2 10 -1 15 0 4
-1 7 -3 7 -3 0 -7 -3 -9 -7z m24 -326 c-6 -8 -9 -16 -6 -19 3 -2 -2 -5 -10 -5
-13 0 -13 3 2 19 19 21 31 25 14 5z m-27 -55 c3 -5 -10 -23 -28 -41 -24 -24
-36 -29 -41 -20 -5 7 -4 10 2 6 6 -4 18 2 28 13 10 11 15 20 10 20 -4 0 -2 7
5 15 14 17 17 18 24 7z m-84 -86 c0 -2 -8 -10 -17 -17 -16 -13 -17 -12 -4 4
13 16 21 21 21 13z"/>
<path d="M2215 740 c3 -5 8 -10 11 -10 2 0 4 5 4 10 0 6 -5 10 -11 10 -5 0 -7
-4 -4 -10z"/>
<path d="M614 716 c1 -8 5 -18 8 -22 4 -3 5 1 4 10 -1 8 -5 18 -8 22 -4 3 -5
-1 -4 -10z"/>
<path d="M2240 720 c-9 -6 -10 -10 -3 -10 6 0 15 5 18 10 8 12 4 12 -15 0z"/>
<path d="M2276 722 c-3 -5 1 -9 9 -9 8 0 12 4 9 9 -3 4 -7 8 -9 8 -2 0 -6 -4
-9 -8z"/>
<path d="M650 699 c0 -5 5 -7 10 -4 6 3 10 8 10 11 0 2 -4 4 -10 4 -5 0 -10
-5 -10 -11z"/>
<path d="M2179 708 c-5 -18 -6 -38 -1 -34 7 8 12 36 6 36 -2 0 -4 -1 -5 -2z"/>
<path d="M580 686 c0 -2 8 -10 18 -17 15 -13 16 -12 3 4 -13 16 -21 21 -21 13z"/>
<path d="M2230 686 c0 -2 7 -7 16 -10 8 -3 12 -2 9 4 -6 10 -25 14 -25 6z"/>
<path d="M2273 635 c0 -8 4 -12 9 -9 5 3 6 10 3 15 -9 13 -12 11 -12 -6z"/>
<path d="M656 618 c3 -4 11 -5 19 -1 21 7 19 12 -4 10 -11 0 -18 -5 -15 -9z"/>
<path d="M2166 622 c-3 -5 1 -9 9 -9 8 0 12 4 9 9 -3 4 -7 8 -9 8 -2 0 -6 -4
-9 -8z"/>
<path d="M2216 622 c-3 -5 1 -9 9 -9 8 0 12 4 9 9 -3 4 -7 8 -9 8 -2 0 -6 -4
-9 -8z"/>
<path d="M599 593 c-13 -16 -12 -17 4 -4 9 7 17 15 17 17 0 8 -8 3 -21 -13z"/>
<path d="M695 551 c-3 -5 -2 -12 3 -15 5 -3 9 1 9 9 0 17 -3 19 -12 6z"/>
<path d="M2215 540 c-3 -5 -1 -10 4 -10 6 0 11 5 11 10 0 6 -2 10 -4 10 -3 0
-8 -4 -11 -10z"/>
<path d="M560 511 c13 -10 13 -11 0 -11 -9 0 -11 -3 -5 -8 6 -4 11 -20 12 -37
2 -36 10 -90 13 -90 3 0 10 -55 11 -77 0 -10 7 -18 15 -18 16 0 18 12 5 25 -6
6 -11 22 -13 37 -2 15 -6 30 -9 32 -3 3 -4 24 -3 46 1 22 -3 40 -8 40 -7 0 -6
5 1 13 6 8 7 17 3 21 -4 4 -7 13 -7 19 0 5 -7 12 -15 14 -13 4 -13 3 0 -6z"/>
<path d="M2093 465 c0 -8 4 -12 9 -9 5 3 6 10 3 15 -9 13 -12 11 -12 -6z"/>
<path d="M2230 440 c0 -5 5 -10 11 -10 5 0 7 5 4 10 -3 6 -8 10 -11 10 -2 0
-4 -4 -4 -10z"/>
<path d="M735 431 c-3 -5 -2 -12 3 -15 5 -3 9 1 9 9 0 17 -3 19 -12 6z"/>
<path d="M656 421 c-3 -5 2 -15 12 -22 15 -12 16 -12 5 2 -7 9 -10 19 -6 22 3
4 4 7 0 7 -3 0 -8 -4 -11 -9z"/>
<path d="M695 421 c-3 -5 -2 -12 3 -15 5 -3 9 1 9 9 0 17 -3 19 -12 6z"/>
<path d="M1455 420 c-3 -5 -1 -10 4 -10 6 0 11 5 11 10 0 6 -2 10 -4 10 -3 0
-8 -4 -11 -10z"/>
<path d="M1490 420 c0 -5 5 -10 11 -10 5 0 7 5 4 10 -3 6 -8 10 -11 10 -2 0
-4 -4 -4 -10z"/>
<path d="M1695 421 c-3 -5 -2 -12 3 -15 5 -3 9 1 9 9 0 17 -3 19 -12 6z"/>
<path d="M2070 416 c0 -2 8 -10 18 -17 15 -13 16 -12 3 4 -13 16 -21 21 -21
13z"/>
<path d="M626 402 c-3 -5 1 -9 9 -9 8 0 12 4 9 9 -3 4 -7 8 -9 8 -2 0 -6 -4
-9 -8z"/>
<path d="M1740 406 c0 -2 8 -10 18 -17 15 -13 16 -12 3 4 -13 16 -21 21 -21
13z"/>
<path d="M1594 376 c1 -8 5 -18 8 -22 4 -3 5 1 4 10 -1 8 -5 18 -8 22 -4 3 -5
-1 -4 -10z"/>
<path d="M2055 380 c-3 -5 -1 -10 4 -10 6 0 11 5 11 10 0 6 -2 10 -4 10 -3 0
-8 -4 -11 -10z"/>
<path d="M1390 376 c0 -2 8 -10 18 -17 15 -13 16 -12 3 4 -13 16 -21 21 -21
13z"/>
<path d="M1710 376 c0 -2 8 -10 18 -17 15 -13 16 -12 3 4 -13 16 -21 21 -21
13z"/>
<path d="M1950 376 c0 -2 8 -10 18 -17 15 -13 16 -12 3 4 -13 16 -21 21 -21
13z"/>
<path d="M1310 360 c0 -5 5 -10 11 -10 5 0 7 5 4 10 -3 6 -8 10 -11 10 -2 0
-4 -4 -4 -10z"/>
<path d="M2113 325 c0 -8 4 -15 9 -15 4 0 8 4 8 9 0 6 -4 12 -8 15 -5 3 -9 -1
-9 -9z"/>
<path d="M610 321 c0 -6 4 -13 10 -16 6 -3 7 1 4 9 -7 18 -14 21 -14 7z"/>
<path d="M1260 325 c0 -2 6 -8 13 -14 10 -8 14 -7 14 2 0 8 -6 14 -14 14 -7 0
-13 -1 -13 -2z"/>
<path d="M1526 321 c-4 -5 -17 -8 -31 -5 -13 2 -27 0 -30 -6 -4 -6 -11 -7 -17
-4 -7 5 -8 2 -3 -6 6 -10 4 -12 -8 -7 -10 4 -20 0 -25 -8 -4 -8 -20 -16 -35
-17 -17 -1 -29 -10 -33 -22 -3 -10 -9 -14 -13 -9 -3 6 -31 -5 -68 -27 -34 -21
-64 -35 -67 -32 -3 3 -6 0 -6 -7 0 -8 -6 -11 -16 -7 -8 3 -13 2 -10 -2 3 -5
-10 -15 -29 -22 -19 -8 -35 -18 -35 -23 0 -5 -8 -3 -17 4 -10 9 -14 9 -10 2 8
-12 -30 -40 -47 -35 -5 2 -13 -2 -17 -9 -8 -14 -36 -20 -94 -19 -87 1 -105 4
-105 19 0 8 -3 11 -7 8 -3 -4 -15 1 -26 10 -11 10 -17 12 -13 6 4 -8 1 -13 -9
-13 -10 0 -13 5 -9 12 4 7 3 8 -4 4 -7 -4 -12 -1 -12 7 0 16 -27 31 -49 28
-13 -2 -13 0 0 16 13 17 13 17 -5 3 -18 -14 -18 -13 -12 8 5 16 4 22 -6 20 -7
-2 -12 3 -11 10 2 6 -2 12 -8 12 -5 0 -7 5 -3 12 5 7 3 8 -6 3 -9 -6 -10 -2
-5 15 5 17 4 21 -6 17 -8 -2 -12 -11 -10 -18 2 -8 4 -19 4 -26 0 -7 5 -9 10
-6 6 4 8 0 4 -10 -4 -10 -2 -16 5 -14 5 1 12 -7 14 -18 1 -11 8 -21 14 -23 7
-3 23 -17 38 -33 14 -16 28 -27 30 -24 3 3 14 -2 24 -12 10 -9 18 -13 18 -8 0
4 7 1 17 -6 9 -8 24 -15 35 -15 10 -1 19 -2 21 -4 9 -7 36 -7 31 1 -3 5 0 9 5
9 6 0 11 -6 11 -12 0 -10 3 -9 9 1 7 11 9 11 14 0 4 -12 7 -11 16 1 10 13 11
13 11 0 0 -12 2 -13 9 -1 5 7 14 10 20 6 7 -4 18 -1 26 5 8 7 15 9 15 5 0 -5
8 -1 18 8 10 10 22 14 25 11 4 -4 9 1 13 10 3 9 10 14 14 11 5 -3 11 -1 15 5
4 6 11 7 17 4 7 -5 8 -2 3 6 -6 10 -4 12 7 7 9 -3 23 2 33 13 10 11 21 17 25
15 5 -3 10 -1 12 5 2 6 14 12 28 15 14 2 32 14 42 25 17 21 34 28 22 8 -4 -7
-3 -8 5 -4 6 4 8 12 5 18 -5 8 -1 9 10 5 11 -5 15 -3 10 5 -5 8 -2 9 10 5 10
-4 19 -1 23 9 5 13 7 13 14 2 7 -10 9 -8 9 6 0 11 3 17 6 13 4 -3 20 1 36 9
17 9 40 18 51 21 38 9 187 10 187 1 0 -5 11 -6 25 -4 13 3 27 1 30 -4 3 -4 17
-7 33 -5 15 2 32 0 37 -3 6 -4 21 -7 35 -7 14 0 31 -4 38 -8 6 -5 16 -6 21 -3
5 4 11 0 14 -6 3 -7 4 -3 4 9 -1 12 -4 20 -8 17 -4 -2 -9 -1 -12 3 -2 5 -2 2
-1 -4 4 -16 -8 -17 -24 -1 -17 17 -52 20 -52 5 0 -8 -3 -8 -9 2 -5 8 -18 12
-30 8 -11 -3 -25 1 -31 8 -12 14 -27 14 -47 2 -8 -5 -13 -3 -13 3 0 7 -6 10
-14 7 -7 -3 -23 1 -34 9 -12 8 -23 10 -26 5 -7 -10 -25 -9 -43 2 -6 4 -14 3
-17 -2z m18 -9 c3 -5 -1 -9 -9 -9 -8 0 -12 4 -9 9 3 4 7 8 9 8 2 0 6 -4 9 -8z
m60 0 c3 -5 -1 -9 -9 -9 -8 0 -12 4 -9 9 3 4 7 8 9 8 2 0 6 -4 9 -8z m-114 -6
c0 -2 -7 -7 -16 -10 -8 -3 -12 -2 -9 4 6 10 25 14 25 6z m-775 -192 c9 -15 12
-23 6 -20 -11 7 -35 46 -28 46 3 0 12 -12 22 -26z m81 -46 c19 -23 19 -23 -2
-5 -11 9 -24 14 -29 10 -4 -5 -5 -2 -1 5 9 16 10 16 32 -10z m74 -14 c0 -8
-19 -13 -24 -6 -3 5 1 9 9 9 8 0 15 -2 15 -3z"/>
<path d="M2150 319 c0 -5 5 -7 10 -4 6 3 10 8 10 11 0 2 -4 4 -10 4 -5 0 -10
-5 -10 -11z"/>
<path d="M1980 305 c0 -2 6 -8 13 -14 10 -8 14 -7 14 2 0 8 -6 14 -14 14 -7 0
-13 -1 -13 -2z"/>
<path d="M1319 273 c-13 -16 -12 -17 4 -4 16 13 21 21 13 21 -2 0 -10 -8 -17
-17z"/>
<path d="M680 260 c-9 -6 -10 -10 -3 -10 6 0 15 5 18 10 8 12 4 12 -15 0z"/>
<path d="M834 262 c4 -3 14 -7 22 -8 9 -1 13 0 10 4 -4 3 -14 7 -22 8 -9 1
-13 0 -10 -4z"/>
<path d="M1900 262 c0 -13 19 -19 53 -17 15 1 27 -2 27 -6 0 -4 9 -7 20 -6 24
2 24 4 5 23 -8 9 -15 11 -15 7 0 -11 -61 -10 -78 1 -7 4 -12 3 -12 -2z"/>
<path d="M790 240 c0 -5 5 -10 11 -10 5 0 7 5 4 10 -3 6 -8 10 -11 10 -2 0 -4
-4 -4 -10z"/>
<path d="M1030 240 c0 -5 5 -10 11 -10 5 0 7 5 4 10 -3 6 -8 10 -11 10 -2 0
-4 -4 -4 -10z"/>
<path d="M856 218 c3 -5 10 -6 15 -3 13 9 11 12 -6 12 -8 0 -12 -4 -9 -9z"/>
<path d="M716 158 c3 -5 10 -6 15 -3 13 9 11 12 -6 12 -8 0 -12 -4 -9 -9z"/>
<path d="M866 138 c3 -5 10 -6 15 -3 13 9 11 12 -6 12 -8 0 -12 -4 -9 -9z"/>
<path d="M786 118 c3 -5 10 -6 15 -3 13 9 11 12 -6 12 -8 0 -12 -4 -9 -9z"/>
<path d="M960 120 c-9 -6 -10 -10 -3 -10 6 0 15 5 18 10 8 12 4 12 -15 0z"/>
<path d="M915 80 c3 -5 8 -10 11 -10 2 0 4 5 4 10 0 6 -5 10 -11 10 -5 0 -7
-4 -4 -10z"/>
</g>
</svg>
